<?xml version="1.0" encoding="UTF-8"?>
<!DOCTYPE svg PUBLIC "-//W3C//DTD SVG 1.1//EN" "http://www.w3.org/Graphics/SVG/1.1/DTD/svg11.dtd">
<svg version="1.2" width="210mm" height="297mm" viewBox="0 0 21000 29700" preserveAspectRatio="xMidYMid" fill-rule="evenodd" stroke-width="28.222" stroke-linejoin="round" xmlns="http://www.w3.org/2000/svg" xmlns:ooo="http://xml.openoffice.org/svg/export" xmlns:xlink="http://www.w3.org/1999/xlink" xmlns:presentation="http://sun.com/xmlns/staroffice/presentation" xmlns:smil="http://www.w3.org/2001/SMIL20/" xmlns:anim="urn:oasis:names:tc:opendocument:xmlns:animation:1.0" xmlns:svg="urn:oasis:names:tc:opendocument:xmlns:svg-compatible:1.0" xml:space="preserve">
 <defs class="ClipPathGroup">
  <clipPath id="presentation_clip_path" clipPathUnits="userSpaceOnUse">
   <rect x="0" y="0" width="21000" height="29700"/>
  </clipPath>
  <clipPath id="presentation_clip_path_shrink" clipPathUnits="userSpaceOnUse">
   <rect x="21" y="29" width="20958" height="29641"/>
  </clipPath>
 </defs>
 <defs class="TextShapeIndex">
  <g ooo:slide="id1" ooo:id-list="id3 id4"/>
 </defs>
 <defs class="EmbeddedBulletChars">
  <g id="bullet-char-template-57356" transform="scale(0.00048828125,-0.00048828125)">
   <path d="M 580,1141 L 1163,571 580,0 -4,571 580,1141 Z"/>
  </g>
  <g id="bullet-char-template-57354" transform="scale(0.00048828125,-0.00048828125)">
   <path d="M 8,1128 L 1137,1128 1137,0 8,0 8,1128 Z"/>
  </g>
  <g id="bullet-char-template-10146" transform="scale(0.00048828125,-0.00048828125)">
   <path d="M 174,0 L 602,739 174,1481 1456,739 174,0 Z M 1358,739 L 309,1346 659,739 1358,739 Z"/>
  </g>
  <g id="bullet-char-template-10132" transform="scale(0.00048828125,-0.00048828125)">
   <path d="M 2015,739 L 1276,0 717,0 1260,543 174,543 174,936 1260,936 717,1481 1274,1481 2015,739 Z"/>
  </g>
  <g id="bullet-char-template-10007" transform="scale(0.00048828125,-0.00048828125)">
   <path d="M 0,-2 C -7,14 -16,27 -25,37 L 356,567 C 262,823 215,952 215,954 215,979 228,992 255,992 264,992 276,990 289,987 310,991 331,999 354,1012 L 381,999 492,748 772,1049 836,1024 860,1049 C 881,1039 901,1025 922,1006 886,937 835,863 770,784 769,783 710,716 594,584 L 774,223 C 774,196 753,168 711,139 L 727,119 C 717,90 699,76 672,76 641,76 570,178 457,381 L 164,-76 C 142,-110 111,-127 72,-127 30,-127 9,-110 8,-76 1,-67 -2,-52 -2,-32 -2,-23 -1,-13 0,-2 Z"/>
  </g>
  <g id="bullet-char-template-10004" transform="scale(0.00048828125,-0.00048828125)">
   <path d="M 285,-33 C 182,-33 111,30 74,156 52,228 41,333 41,471 41,549 55,616 82,672 116,743 169,778 240,778 293,778 328,747 346,684 L 369,508 C 377,444 397,411 428,410 L 1163,1116 C 1174,1127 1196,1133 1229,1133 1271,1133 1292,1118 1292,1087 L 1292,965 C 1292,929 1282,901 1262,881 L 442,47 C 390,-6 338,-33 285,-33 Z"/>
  </g>
  <g id="bullet-char-template-9679" transform="scale(0.00048828125,-0.00048828125)">
   <path d="M 813,0 C 632,0 489,54 383,161 276,268 223,411 223,592 223,773 276,916 383,1023 489,1130 632,1184 813,1184 992,1184 1136,1130 1245,1023 1353,916 1407,772 1407,592 1407,412 1353,268 1245,161 1136,54 992,0 813,0 Z"/>
  </g>
  <g id="bullet-char-template-8226" transform="scale(0.00048828125,-0.00048828125)">
   <path d="M 346,457 C 273,457 209,483 155,535 101,586 74,649 74,723 74,796 101,859 155,911 209,963 273,989 346,989 419,989 480,963 531,910 582,859 608,796 608,723 608,648 583,586 532,535 482,483 420,457 346,457 Z"/>
  </g>
  <g id="bullet-char-template-8211" transform="scale(0.00048828125,-0.00048828125)">
   <path d="M -4,459 L 1135,459 1135,606 -4,606 -4,459 Z"/>
  </g>
  <g id="bullet-char-template-61548" transform="scale(0.00048828125,-0.00048828125)">
   <path d="M 173,740 C 173,903 231,1043 346,1159 462,1274 601,1332 765,1332 928,1332 1067,1274 1183,1159 1299,1043 1357,903 1357,740 1357,577 1299,437 1183,322 1067,206 928,148 765,148 601,148 462,206 346,322 231,437 173,577 173,740 Z"/>
  </g>
 </defs>
 <g>
  <g id="id2" class="Master_Slide">
   <g id="bg-id2" class="Background"/>
   <g id="bo-id2" class="BackgroundObjects"/>
  </g>
 </g>
 <g class="SlideGroup">
  <g>
   <g id="container-id1">
    <g id="id1" class="Slide" clip-path="url(#presentation_clip_path)">
     <g class="Page">
      <g class="Group">
       <g class="com.sun.star.drawing.ClosedBezierShape">
        <g id="id3">
         <rect class="BoundingBox" stroke="none" fill="none" x="6194" y="7170" width="11228" height="9499"/>
         <g>
          <defs>
           <linearGradient id="gradient1" x1="6193" y1="11919" x2="17421" y2="11919" gradientUnits="userSpaceOnUse">
            <stop offset="0" style="stop-color:rgb(244,214,158)"/>
            <stop offset="1" style="stop-color:rgb(242,232,185)"/>
           </linearGradient>
          </defs>
          <path style="fill:url(#gradient1)" d="M 8558,12377 L 8672,12259 8847,12093 9304,11687 9778,11299 9973,11156 10052,11105 10115,11070 10096,11200 10062,11383 9971,11837 9820,12566 10171,12435 10436,10927 10439,10917 10442,10908 10445,10902 10448,10897 10451,10892 10454,10888 10460,10881 10473,10870 10489,10857 10529,10830 10605,10779 11006,10490 11205,10341 11401,10186 11600,10016 11794,9837 11980,9651 12159,9462 12276,9331 12388,9196 12495,9053 12599,8901 12696,8732 12793,8526 12879,8296 12913,8176 12941,8055 12959,7935 12968,7817 12964,7704 12947,7596 12934,7545 12916,7496 12894,7450 12868,7406 12838,7364 12803,7326 12763,7291 12719,7260 12661,7228 12599,7204 12533,7186 12463,7174 12390,7170 12313,7173 12234,7183 12152,7201 12067,7226 11981,7258 11893,7299 11804,7347 11715,7404 11624,7469 11534,7542 11443,7624 11280,7793 11138,7964 11015,8138 10907,8318 10812,8505 10727,8700 10648,8905 10573,9122 10454,9516 10343,9951 10250,10389 10186,10796 10179,10836 10176,10851 10171,10865 10165,10877 10161,10882 10157,10888 10146,10898 10132,10908 10094,10931 10039,10960 9862,11055 9473,11282 9050,11553 8627,11857 8425,12017 8234,12180 8097,12308 7967,12441 7845,12580 7731,12724 7624,12875 7526,13031 7437,13194 7357,13363 7300,13505 7253,13649 7215,13796 7189,13944 7176,14093 7177,14241 7183,14316 7193,14390 7207,14463 7225,14536 7264,14652 7312,14761 7368,14861 7431,14955 7503,15042 7581,15121 7665,15194 7756,15260 7851,15319 7951,15372 8056,15418 8164,15458 8274,15492 8388,15520 8503,15542 8620,15558 8586,15599 8372,15845 8268,15959 8158,16067 8040,16168 7907,16263 7754,16349 7578,16429 7549,16439 7507,16451 7392,16480 7249,16509 7092,16529 7013,16534 6936,16534 6864,16529 6798,16518 6768,16510 6740,16500 6714,16488 6691,16474 6671,16457 6655,16439 6641,16418 6632,16394 6626,16369 6625,16357 6624,16346 6625,16335 6627,16325 6632,16305 6641,16286 6651,16269 6664,16252 6678,16235 6708,16202 6737,16167 6750,16148 6762,16127 6771,16105 6778,16081 6782,16061 6784,16038 6784,16027 6783,16015 6782,16003 6780,15990 6778,15978 6775,15965 6770,15952 6765,15938 6759,15924 6752,15910 6744,15896 6734,15882 6717,15859 6697,15838 6676,15819 6653,15803 6629,15789 6603,15777 6577,15768 6550,15762 6523,15758 6495,15756 6468,15758 6440,15762 6412,15768 6385,15777 6359,15789 6334,15804 6309,15823 6287,15844 6267,15867 6249,15891 6235,15918 6222,15945 6212,15974 6204,16004 6199,16034 6195,16065 6194,16095 6195,16126 6199,16157 6204,16187 6211,16216 6221,16244 6250,16309 6284,16368 6323,16420 6368,16467 6417,16509 6470,16545 6527,16576 6587,16602 6717,16641 6857,16662 7004,16668 7155,16659 7308,16639 7460,16608 7609,16568 7751,16521 7883,16468 8004,16411 8110,16351 8199,16291 8351,16182 8430,16125 8507,16066 8577,16008 8641,15950 8700,15892 8757,15833 8866,15708 8979,15569 9160,15552 9246,15537 9330,15517 9411,15493 9490,15465 9566,15431 9639,15393 9711,15350 9780,15302 9848,15249 9913,15190 9977,15126 10039,15057 10158,14900 10056,14955 9949,15003 9837,15045 9722,15081 9604,15109 9485,15131 9365,15145 9245,15151 9313,15060 9329,15033 9351,14996 9415,14871 9559,14553 9743,14091 9827,13852 9895,13629 9920,13531 9938,13443 9946,13369 9947,13337 9945,13310 9942,13310 9937,13311 9925,13314 9890,13325 9793,13360 9628,13424 9603,13435 9593,13441 9585,13447 9578,13452 9572,13459 9568,13466 9565,13473 9562,13481 9560,13491 9557,13512 9548,13573 9530,13655 9500,13760 9417,14011 9326,14257 9286,14357 9254,14431 9094,14768 9003,14947 8907,15125 8794,15098 8689,15063 8593,15019 8506,14967 8427,14908 8356,14842 8293,14770 8237,14693 8188,14609 8147,14522 8084,14333 8047,14132 8033,13921 8042,13705 8070,13488 8116,13273 8179,13065 8257,12867 8347,12684 8448,12519 8558,12377 Z M 12406,15337 L 12413,15342 12421,15351 12445,15376 12515,15458 12738,15706 12885,15852 13051,16000 13235,16138 13331,16201 13431,16258 13558,16321 13688,16375 13821,16421 13955,16460 14092,16491 14231,16516 14513,16545 14798,16549 15085,16530 15371,16491 15654,16433 15909,16372 15985,16347 16020,16333 16052,16319 16080,16304 16104,16287 16113,16279 16121,16270 16128,16262 16132,16252 16126,16249 16118,16246 16109,16244 16099,16243 16076,16243 16049,16244 15985,16253 15915,16266 15771,16296 15708,16308 15681,16312 15658,16314 15506,16319 15362,16317 15293,16312 15225,16306 15159,16298 15093,16287 14973,16263 14918,16250 14865,16236 14813,16220 14761,16201 14706,16180 14649,16154 14403,16026 14296,15961 14199,15893 14109,15824 14026,15753 13876,15603 13739,15441 13607,15266 13320,14863 13229,14726 13213,14708 13209,14703 13208,14702 13206,14701 13183,14685 12855,14038 12339,12997 12026,12377 11913,12167 11875,12102 11861,12082 11852,12071 11826,12075 11807,12080 11799,12083 11793,12086 11787,12089 11781,12092 11776,12096 11771,12101 11760,12112 11729,12142 11715,12155 11701,12166 11675,12185 11648,12203 11635,12213 11621,12224 11562,12273 11483,12334 11291,12472 11190,12539 11095,12598 11011,12646 10975,12663 10944,12675 10943,12682 10944,12689 10946,12704 10951,12721 10958,12739 10976,12779 11001,12822 11116,13006 11141,13045 11165,13080 11189,13116 11200,13134 11210,13153 11255,13242 11277,13285 11301,13328 11552,13855 11573,13901 11593,13948 11613,13995 11624,14018 11634,14039 11680,14121 11726,14201 11773,14281 11818,14364 11915,14552 11992,14696 12033,14764 12080,14837 12207,15017 12220,15035 12232,15055 12258,15099 12283,15142 12295,15162 12308,15181 12362,15259 12376,15279 12388,15299 12398,15318 12406,15337 Z M 9538,12629 L 9551,12606 9560,12585 9566,12564 9568,12554 9569,12545 9569,12536 9568,12527 9567,12519 9564,12511 9561,12504 9558,12497 9553,12490 9548,12484 9542,12478 9536,12472 9521,12463 9504,12455 9485,12449 9463,12445 9440,12443 9415,12443 9388,12446 9342,12453 9300,12462 9260,12475 9222,12492 9186,12512 9151,12536 9117,12564 9083,12596 9062,12620 9043,12644 9026,12669 9011,12696 8999,12723 8988,12750 8979,12778 8972,12807 8967,12835 8965,12864 8964,12893 8966,12921 8969,12949 8975,12977 8983,13004 8993,13031 9015,13076 9042,13114 9074,13147 9109,13174 9147,13196 9188,13213 9232,13226 9277,13235 9324,13240 9371,13242 9420,13241 9468,13237 9563,13223 9652,13204 9730,13182 9806,13156 9880,13127 9951,13095 10144,12994 10363,12862 10841,12537 11314,12189 11709,11886 13508,10461 14262,9862 14644,9572 15038,9291 15386,9062 15559,8960 15734,8866 15913,8780 16098,8705 16292,8639 16497,8585 16598,8563 16697,8547 16793,8535 16889,8526 17081,8517 17283,8511 17321,8510 17353,8506 17378,8502 17397,8497 17404,8494 17410,8491 17415,8488 17418,8485 17419,8483 17420,8482 17420,8480 17421,8478 17420,8477 17420,8475 17419,8473 17418,8471 17416,8468 17412,8464 17407,8461 17401,8458 17386,8451 17368,8446 17346,8440 17321,8436 17294,8433 17264,8431 16856,8420 16649,8425 16549,8432 16450,8443 16227,8479 16005,8524 15786,8580 15569,8646 15356,8722 15147,8808 14942,8903 14743,9009 14539,9132 14341,9262 14149,9401 13961,9545 13597,9849 13244,10165 12406,10931 11982,11308 11550,11676 11138,12010 10940,12160 10740,12300 10534,12431 10318,12554 10086,12670 9835,12781 9784,12800 9733,12818 9681,12833 9654,12839 9628,12844 9605,12848 9580,12850 9552,12851 9539,12851 9525,12850 9512,12848 9500,12846 9489,12842 9478,12837 9474,12834 9469,12831 9465,12828 9462,12824 9459,12820 9456,12816 9454,12811 9452,12806 9451,12801 9451,12796 9451,12786 9453,12775 9456,12763 9461,12752 9466,12739 9480,12715 9538,12629 Z M 10498,10657 L 10516,10652 10537,10644 10587,10619 10647,10585 10716,10542 10872,10434 11044,10307 11233,10162 11418,10012 11597,9855 11768,9691 11958,9491 12135,9284 12218,9176 12297,9065 12373,8949 12446,8828 12517,8695 12588,8540 12650,8372 12676,8285 12696,8198 12710,8111 12716,8026 12714,7943 12703,7863 12681,7788 12665,7752 12647,7718 12626,7685 12601,7653 12573,7624 12541,7596 12502,7569 12459,7546 12413,7527 12364,7514 12312,7505 12258,7501 12202,7503 12144,7509 12084,7521 12022,7538 11959,7560 11896,7588 11831,7621 11765,7659 11699,7703 11633,7753 11553,7822 11477,7898 11407,7980 11340,8067 11219,8256 11112,8457 11019,8667 10937,8880 10801,9291 10710,9605 10613,9982 10535,10356 10509,10519 10498,10657 Z "/>
         </g>
        </g>
       </g>
       <g class="com.sun.star.drawing.ClosedBezierShape">
        <g id="id4">
         <rect class="BoundingBox" stroke="none" fill="none" x="500" y="17766" width="20001" height="4766"/>
         <g>
          <defs>
           <linearGradient id="gradient2" x1="500" y1="20148" x2="20499" y2="20148" gradientUnits="userSpaceOnUse">
            <stop offset="0.06" style="stop-color:rgb(242,232,185)"/>
            <stop offset="1" style="stop-color:rgb(244,214,158)"/>
           </linearGradient>
          </defs>
          <path style="fill:url(#gradient2)" d="M 12394,20666 L 12376,20701 12368,20717 12360,20731 12343,20759 12323,20787 12299,20818 12268,20854 12036,21103 11990,21151 11943,21195 11894,21237 11844,21277 11791,21316 11737,21352 11619,21424 11579,21445 11539,21460 11500,21471 11461,21477 11425,21479 11390,21475 11374,21472 11359,21467 11344,21461 11330,21454 11317,21446 11306,21436 11295,21426 11285,21414 11277,21402 11270,21388 11264,21373 11260,21357 11257,21340 11255,21321 11256,21302 11258,21281 11267,21237 11283,21189 11889,19938 11912,19889 11946,19822 12026,19661 11590,19661 11462,19931 11255,20356 11141,20580 11091,20669 11068,20704 11049,20732 10986,20812 10915,20895 10839,20980 10758,21063 10675,21144 10591,21219 10507,21285 10426,21342 10378,21371 10311,21408 10232,21446 10189,21462 10146,21476 10103,21486 10062,21491 10022,21490 10003,21487 9985,21483 9968,21476 9952,21468 9937,21457 9924,21444 9911,21429 9901,21411 9891,21390 9884,21367 9881,21351 9880,21333 9880,21313 9882,21291 9890,21242 9905,21186 9925,21125 9951,21058 9981,20988 10017,20913 10635,19678 10212,19678 10144,19804 10080,19931 9954,20180 9876,20280 9754,20420 9427,20767 9245,20946 9068,21109 8906,21243 8834,21295 8771,21334 8666,21389 8550,21440 8489,21462 8428,21480 8367,21494 8306,21503 8245,21506 8186,21502 8130,21491 8075,21471 8049,21458 8024,21442 8000,21424 7977,21404 7955,21380 7934,21354 7896,21293 7881,21261 7868,21230 7859,21198 7852,21166 7848,21134 7846,21102 7845,21070 7847,21037 7855,20973 7868,20909 7903,20780 7903,20780 7903,20780 7903,20780 7905,20780 7910,20779 7930,20776 7999,20766 8200,20737 8340,20713 8408,20698 8478,20681 8590,20649 8698,20615 8803,20575 8905,20529 9005,20476 9104,20412 9201,20338 9299,20251 9323,20226 9344,20200 9364,20172 9380,20145 9394,20116 9406,20087 9415,20057 9421,20027 9425,19997 9425,19967 9423,19936 9418,19906 9411,19876 9400,19846 9386,19817 9370,19788 9353,19764 9334,19743 9313,19724 9290,19706 9265,19691 9239,19677 9210,19665 9181,19655 9150,19647 9118,19640 9051,19631 8982,19628 8910,19630 8819,19638 8729,19654 8639,19676 8551,19704 8465,19737 8380,19776 8297,19820 8216,19868 8062,19977 7920,20099 7792,20231 7680,20371 7624,20454 7566,20557 7510,20675 7462,20803 7442,20870 7426,20938 7415,21007 7409,21075 7408,21143 7414,21210 7427,21275 7448,21338 7459,21365 7472,21391 7486,21416 7501,21440 7517,21463 7535,21485 7553,21506 7573,21525 7593,21544 7614,21561 7636,21577 7659,21592 7682,21605 7706,21617 7731,21627 7757,21636 7840,21657 7926,21669 8014,21671 8103,21665 8194,21652 8285,21631 8376,21605 8466,21573 8642,21495 8808,21404 8960,21305 9092,21204 9231,21082 9360,20960 9580,20733 9738,20558 9789,20502 9807,20483 9820,20472 9817,20490 9813,20509 9801,20549 9784,20591 9765,20634 9723,20716 9686,20784 9631,20893 9584,20995 9545,21088 9515,21173 9494,21250 9486,21286 9481,21320 9479,21353 9478,21383 9480,21411 9484,21438 9494,21474 9507,21505 9524,21534 9544,21559 9567,21580 9593,21598 9622,21614 9653,21625 9687,21634 9723,21640 9802,21643 9888,21635 9980,21615 10077,21586 10176,21547 10278,21498 10381,21441 10482,21376 10582,21303 10679,21223 10771,21136 10891,21008 10960,20939 10989,20914 11001,20905 11011,20899 10993,20950 10970,21007 10913,21154 10895,21208 10879,21266 10873,21296 10868,21326 10866,21356 10865,21385 10867,21414 10872,21442 10879,21469 10890,21495 10904,21520 10923,21542 10945,21563 10972,21581 10991,21592 11012,21602 11034,21610 11057,21617 11081,21622 11106,21627 11157,21632 11210,21634 11264,21631 11317,21625 11370,21616 11449,21595 11525,21567 11598,21533 11668,21493 11735,21450 11799,21403 11918,21305 12114,21121 12192,21052 12225,21027 12255,21010 12226,21072 12197,21146 12183,21187 12170,21228 12159,21271 12151,21314 12147,21344 12144,21374 12143,21403 12144,21432 12148,21461 12153,21489 12161,21516 12171,21541 12185,21565 12201,21588 12220,21609 12243,21627 12269,21643 12298,21657 12332,21668 12369,21676 12453,21685 12537,21684 12621,21676 12705,21660 12789,21637 12871,21608 12953,21574 13032,21535 13186,21447 13330,21350 13461,21250 13577,21152 13677,21068 13811,20948 13876,20884 13932,20822 13954,20793 13971,20765 13983,20740 13986,20729 13988,20718 13979,20720 13969,20723 13944,20736 13916,20755 13883,20781 13807,20846 13720,20926 13526,21103 13425,21188 13326,21261 13171,21368 13087,21423 13044,21448 13001,21470 12959,21489 12916,21505 12871,21518 12827,21528 12782,21535 12740,21537 12699,21535 12661,21529 12643,21524 12627,21517 12611,21510 12596,21501 12583,21490 12571,21478 12561,21464 12551,21449 12544,21432 12538,21414 12534,21393 12532,21371 12534,21322 12544,21265 12558,21212 12577,21155 12625,21031 12684,20895 12750,20753 13253,19696 13896,19696 13896,19611 13293,19611 13767,18605 13371,18605 12897,19611 12500,19611 12500,19696 12857,19696 12394,20666 Z M 19023,20401 L 19376,19617 18949,19620 18815,19910 18585,20179 18488,20291 18430,20355 18147,20647 17974,20816 17788,20985 17595,21144 17400,21280 17305,21337 17211,21384 17120,21420 17032,21443 16957,21454 16919,21457 16883,21458 16847,21457 16811,21454 16777,21449 16744,21442 16712,21433 16681,21423 16652,21410 16625,21395 16599,21378 16575,21360 16554,21339 16535,21316 16519,21293 16505,21266 16492,21238 16480,21207 16469,21174 16461,21139 16448,21066 16441,20991 16441,20954 16443,20917 16447,20880 16452,20845 16460,20811 16471,20779 16495,20772 16527,20766 16605,20754 16686,20741 16721,20736 16750,20730 16940,20685 17145,20630 17345,20566 17437,20531 17522,20494 17618,20445 17729,20378 17843,20297 17896,20252 17944,20204 17987,20153 18022,20100 18036,20073 18047,20045 18056,20017 18061,19988 18064,19959 18062,19930 18058,19901 18049,19871 18037,19841 18020,19811 17999,19781 17973,19751 17947,19725 17918,19702 17888,19681 17856,19663 17786,19635 17711,19617 17631,19607 17547,19605 17460,19612 17371,19625 17282,19644 17192,19670 17104,19700 17018,19735 16935,19773 16855,19815 16781,19859 16713,19905 16588,20004 16473,20110 16370,20224 16278,20346 16197,20475 16127,20611 16069,20754 16022,20903 16005,20982 15995,21057 15993,21129 15999,21196 16012,21259 16033,21317 16061,21371 16097,21420 16139,21463 16189,21502 16246,21535 16310,21562 16381,21583 16458,21599 16542,21608 16633,21610 16737,21606 16837,21594 16934,21575 17029,21550 17120,21519 17209,21482 17296,21440 17380,21394 17542,21289 17696,21172 17843,21046 17985,20914 18062,20837 18180,20714 18457,20427 18692,20175 18062,21536 18468,21539 18703,21088 18821,20860 18945,20635 19012,20531 19103,20408 19212,20276 19335,20145 19464,20023 19530,19968 19595,19919 19660,19877 19722,19843 19783,19819 19812,19810 19840,19805 19846,19850 19855,19893 19868,19933 19884,19971 19904,20006 19927,20038 19953,20066 19981,20090 20012,20110 20046,20125 20082,20135 20120,20139 20161,20139 20203,20132 20247,20119 20292,20099 20331,20077 20367,20053 20399,20026 20427,19997 20451,19966 20471,19934 20485,19901 20495,19866 20499,19832 20499,19815 20498,19797 20495,19780 20490,19763 20484,19746 20476,19730 20467,19713 20456,19697 20428,19666 20393,19637 20351,19609 20326,19597 20301,19587 20274,19579 20247,19574 20220,19570 20191,19567 20163,19567 20133,19568 20058,19578 19983,19597 19907,19625 19832,19660 19757,19703 19682,19752 19536,19865 19394,19993 19261,20130 19023,20401 Z M 6386,20361 L 6699,19684 6287,19687 5464,21407 5449,21439 5444,21453 5439,21467 5435,21482 5433,21497 5431,21515 5430,21536 5823,21539 5888,21412 5935,21311 5986,21203 6066,21059 6133,20939 6197,20819 6261,20700 6327,20584 6425,20432 6473,20366 6521,20304 6572,20243 6627,20183 6753,20053 6791,20017 6831,19982 6873,19949 6915,19920 6959,19896 6981,19886 7002,19877 7024,19871 7046,19866 7068,19863 7090,19863 7098,19955 7103,19991 7107,20007 7111,20023 7116,20037 7122,20051 7129,20064 7137,20077 7147,20090 7158,20102 7171,20115 7186,20127 7209,20144 7234,20158 7259,20167 7285,20173 7312,20176 7338,20176 7365,20173 7392,20167 7418,20158 7444,20147 7494,20119 7539,20083 7580,20042 7613,19996 7627,19971 7639,19946 7648,19921 7655,19895 7658,19869 7659,19844 7657,19819 7652,19794 7643,19769 7630,19746 7614,19724 7593,19702 7569,19682 7540,19664 7515,19651 7489,19641 7463,19633 7436,19628 7382,19624 7327,19628 7272,19639 7216,19656 7161,19679 7106,19707 7053,19739 7000,19773 6900,19848 6810,19924 6732,19994 6635,20086 6556,20166 6478,20252 6386,20361 Z M 14140,20163 L 14153,20163 14165,20162 14178,20159 14191,20154 14216,20142 14242,20126 14366,20040 14403,20017 14445,19997 14490,19979 14539,19964 14594,19954 14654,19949 14720,19951 14793,19960 14912,19984 15017,20010 15128,20036 15267,20062 15335,20071 15402,20077 15538,20085 15537,20086 15537,20086 15535,20088 15529,20092 15511,20103 15502,20108 15494,20114 15491,20116 15488,20118 15487,20120 15486,20121 15486,20121 15486,20122 14217,20978 14098,21061 13968,21157 13843,21258 13787,21308 13737,21357 13725,21370 13714,21385 13703,21400 13695,21417 13691,21425 13688,21434 13685,21443 13682,21453 13681,21462 13679,21472 13678,21482 13678,21493 13694,21495 13709,21496 13724,21495 13739,21493 13766,21487 13793,21476 13907,21416 13940,21400 13977,21385 14018,21373 14063,21362 14114,21356 14171,21353 14235,21356 14306,21364 14378,21379 14452,21399 14601,21451 14755,21509 14912,21559 14992,21578 15073,21590 15155,21594 15237,21588 15320,21572 15404,21542 15488,21499 15573,21439 15620,21399 15673,21349 15730,21290 15786,21226 15837,21160 15880,21094 15898,21062 15912,21031 15922,21001 15927,20973 15906,20986 15886,21000 15868,21015 15851,21031 15820,21065 15791,21101 15760,21138 15726,21174 15707,21192 15687,21208 15664,21224 15639,21239 15579,21268 15522,21285 15466,21293 15411,21293 15357,21285 15302,21271 15247,21252 15189,21230 14931,21124 14855,21100 14774,21078 14687,21061 14592,21049 14548,21046 14504,21045 14416,21046 14241,21056 15770,20026 15820,19990 15878,19946 15939,19896 16000,19840 16055,19781 16080,19751 16101,19722 16119,19692 16132,19664 16142,19636 16144,19622 16145,19609 16126,19613 16106,19620 16059,19639 16005,19662 15942,19687 15868,19709 15826,19717 15781,19725 15733,19729 15680,19731 15624,19730 15564,19725 14922,19598 14835,19596 14748,19602 14662,19619 14578,19648 14497,19691 14420,19750 14346,19826 14277,19921 14196,20039 14175,20074 14157,20107 14150,20123 14145,20137 14142,20151 14141,20157 14140,20163 Z M 16524,20689 L 16615,20680 16713,20663 16817,20637 16924,20603 17031,20561 17138,20512 17240,20456 17337,20394 17426,20326 17504,20252 17570,20173 17598,20131 17621,20088 17640,20045 17655,20000 17665,19954 17669,19908 17668,19860 17662,19811 17650,19762 17631,19712 17579,19703 17527,19698 17475,19699 17424,19704 17374,19714 17324,19728 17228,19768 17135,19821 17046,19886 16962,19960 16884,20041 16811,20127 16745,20216 16687,20306 16636,20394 16594,20478 16561,20557 16537,20628 16524,20689 Z M 3693,19689 L 3695,19669 3700,19642 3721,19573 3797,19377 3911,19129 4054,18857 4216,18587 4302,18462 4389,18348 4477,18248 4564,18166 4606,18133 4648,18106 4689,18085 4730,18070 4970,18031 5002,18024 5012,18023 5020,18022 5026,18022 5029,18023 5032,18024 5032,18024 5033,18024 5033,18024 5033,18024 5033,18024 5033,18024 5033,18023 5033,18023 5033,18021 5034,18017 5036,18012 5039,18005 5044,17995 5052,17983 5043,17976 5039,17972 5036,17970 5035,17969 5035,17969 5034,17968 5033,17968 5031,17967 5026,17966 5003,17962 3858,18012 3673,18020 3481,18037 3295,18062 3126,18093 2905,18145 2683,18209 2466,18286 2257,18378 2157,18430 2061,18487 1969,18549 1882,18615 1800,18687 1724,18764 1655,18846 1593,18935 1551,19006 1517,19082 1489,19161 1469,19242 1456,19323 1452,19404 1456,19483 1470,19559 1492,19631 1525,19699 1544,19730 1567,19760 1592,19788 1620,19814 1650,19838 1684,19860 1720,19880 1759,19897 1845,19922 1944,19936 2020,19938 2110,19933 2206,19921 2301,19900 2347,19886 2390,19870 2429,19851 2464,19829 2493,19805 2505,19792 2516,19778 2525,19763 2532,19748 2538,19732 2541,19715 2475,19730 2412,19748 2351,19764 2290,19776 2259,19779 2227,19781 2195,19780 2161,19776 2127,19769 2091,19758 2053,19743 2014,19724 1975,19699 1941,19669 1910,19632 1885,19591 1864,19545 1848,19494 1838,19440 1834,19382 1835,19321 1843,19257 1858,19191 1879,19124 1907,19055 1943,18985 2039,18845 2168,18707 2333,18574 2535,18450 2778,18337 3064,18241 3395,18164 3773,18109 4201,18080 4432,18076 4445,18077 4449,18077 4451,18077 4452,18077 4452,18077 4452,18077 4452,18077 4452,18077 4452,18077 4452,18077 4452,18077 4452,18077 4452,18076 4452,18076 4451,18076 4450,18076 4449,18076 4449,18076 4449,18076 4449,18076 4449,18076 4449,18076 4449,18076 4449,18076 4449,18076 4449,18076 4451,18077 4454,18078 4466,18080 4486,18084 4492,18085 4493,18086 4495,18086 4496,18087 4497,18088 4499,18089 4503,18092 4508,18096 4504,18102 4500,18109 4488,18122 4474,18136 4457,18150 4417,18179 4370,18211 4265,18284 4212,18327 4161,18376 3911,18616 3847,18682 3782,18758 3713,18847 3640,18955 3321,19488 3167,19768 3126,19851 3077,19958 2966,20214 2855,20468 2806,20574 2765,20654 2612,20937 2532,21080 2491,21148 2449,21211 2367,21318 2266,21430 2147,21542 2014,21647 1942,21695 1867,21740 1790,21779 1710,21813 1628,21841 1544,21862 1459,21875 1372,21880 1313,21879 1258,21876 1208,21871 1161,21862 1138,21856 1116,21849 1095,21841 1074,21832 1054,21822 1034,21810 1014,21796 994,21781 966,21756 943,21733 927,21711 915,21690 911,21679 908,21669 906,21660 905,21650 905,21640 905,21631 909,21612 914,21593 921,21574 938,21534 955,21491 962,21468 967,21443 970,21415 969,21390 966,21366 959,21344 950,21325 938,21308 924,21292 909,21279 891,21268 871,21259 851,21253 829,21248 806,21245 783,21245 759,21246 735,21250 711,21255 687,21263 664,21272 641,21284 619,21298 599,21313 579,21331 562,21351 546,21372 532,21396 520,21422 511,21449 504,21479 501,21510 500,21544 503,21579 511,21616 525,21653 543,21689 567,21724 594,21757 626,21788 661,21818 699,21846 740,21872 783,21895 828,21915 874,21933 922,21947 969,21958 1017,21966 1065,21970 1218,21971 1367,21962 1511,21944 1650,21917 1785,21881 1914,21837 2040,21785 2161,21725 2277,21657 2389,21582 2497,21500 2601,21412 2701,21317 2797,21215 2978,20996 3123,20791 3246,20593 3349,20407 3436,20236 3569,19953 3621,19849 3644,19808 3666,19774 3755,19777 3832,19791 3867,19801 3899,19815 3929,19830 3956,19847 3981,19867 4005,19888 4045,19937 4079,19992 4106,20052 4129,20116 4147,20185 4174,20328 4219,20618 4268,20906 4284,20990 4302,21059 4340,21193 4361,21268 4383,21337 4407,21401 4433,21463 4490,21580 4555,21701 4622,21812 4696,21915 4776,22011 4862,22100 4953,22181 5049,22254 5150,22319 5255,22376 5364,22424 5477,22463 5592,22494 5710,22515 5831,22527 5953,22530 6076,22523 6201,22506 6218,22502 6235,22498 6267,22490 6299,22479 6330,22468 6387,22445 6405,22436 6411,22432 6417,22429 6421,22425 6425,22421 6428,22417 6430,22412 6432,22407 6434,22401 6439,22388 6364,22390 6291,22397 6148,22411 6077,22414 6005,22412 5968,22408 5930,22403 5892,22394 5853,22383 5730,22340 5620,22292 5521,22238 5475,22208 5431,22176 5349,22106 5271,22027 5197,21938 5125,21838 5006,21644 4915,21458 4844,21278 4790,21103 4705,20765 4664,20600 4616,20435 4579,20318 4559,20259 4537,20201 4513,20145 4485,20091 4453,20040 4435,20016 4416,19993 4353,19928 4297,19880 4246,19845 4201,19817 4121,19773 4103,19761 4085,19748 4068,19733 4050,19716 4356,19591 4455,19550 4536,19513 4614,19470 4702,19413 4963,19221 5079,19130 5177,19046 5345,18890 5508,18735 5602,18653 5710,18564 5904,18417 6015,18339 6131,18264 6251,18195 6373,18136 6433,18112 6494,18091 6553,18075 6612,18064 6716,18049 6798,18042 6833,18040 6864,18041 6893,18044 6921,18048 6947,18055 6974,18063 7030,18087 7174,18163 7196,18174 7217,18182 7238,18188 7259,18191 7279,18193 7298,18193 7316,18190 7333,18186 7350,18180 7366,18173 7381,18164 7395,18154 7407,18143 7419,18131 7429,18118 7439,18103 7447,18089 7453,18073 7458,18057 7462,18040 7464,18024 7465,18007 7464,17990 7462,17973 7457,17956 7451,17939 7443,17923 7434,17907 7422,17892 7408,17877 7393,17864 7375,17851 7342,17832 7307,17815 7233,17790 7154,17774 7071,17767 6985,17767 6896,17775 6806,17788 6716,17807 6539,17857 6372,17918 6225,17983 6104,18045 5981,18122 5851,18218 5569,18455 4949,19011 4626,19275 4465,19392 4304,19495 4146,19579 3991,19642 3839,19679 3765,19688 3693,19689 Z M 7932,20712 L 7985,20711 8038,20706 8092,20698 8147,20686 8255,20655 8360,20615 8461,20570 8555,20522 8640,20474 8713,20430 8754,20403 8793,20376 8828,20347 8862,20317 8894,20284 8924,20249 8953,20209 8982,20166 9034,20072 9067,19988 9077,19950 9083,19915 9084,19882 9082,19852 9077,19824 9068,19800 9055,19778 9039,19759 9021,19743 9000,19730 8976,19720 8949,19712 8921,19708 8890,19707 8857,19709 8823,19715 8749,19735 8671,19768 8589,19814 8505,19874 8420,19948 8335,20036 8285,20097 8224,20175 8159,20266 8093,20364 8033,20462 7983,20557 7963,20601 7947,20642 7937,20679 7932,20712 Z "/>
         </g>
        </g>
       </g>
      </g>
     </g>
    </g>
   </g>
  </g>
 </g>
</svg>